<svg xmlns="http://www.w3.org/2000/svg" xmlns:xlink="http://www.w3.org/1999/xlink" width="547" zoomAndPan="magnify" viewBox="0 0 410.25 207.749994" height="277" preserveAspectRatio="xMidYMid meet" version="1.0"><defs><clipPath id="391a7297d1"><path d="M 142 0.0664062 L 408.753906 0.0664062 L 408.753906 205 L 142 205 Z M 142 0.0664062 " clip-rule="nonzero"/></clipPath><clipPath id="be0993a6e0"><path d="M 142 0.0664062 L 408.753906 0.0664062 L 408.753906 205 L 142 205 Z M 142 0.0664062 " clip-rule="nonzero"/></clipPath></defs><g clip-path="url(#391a7297d1)"><path fill="#375622" d="M 364.746094 204.660156 C 375.167969 203.660156 385.949219 201.871094 394.503906 195.832031 C 403.058594 189.792969 408.738281 178.402344 404.957031 168.5625 C 402.332031 161.605469 395.867188 156.960938 389.554688 153.046875 C 395.371094 150.175781 400.347656 146.242188 404.484375 141.242188 C 405.628906 140.035156 406.554688 138.675781 407.257812 137.164062 C 407.960938 135.65625 408.40625 134.070312 408.59375 132.414062 C 408.523438 129.527344 407.644531 126.914062 405.953125 124.570312 C 405.117188 123.328125 404.1875 122.152344 403.175781 121.050781 C 402.160156 119.945312 401.070312 118.921875 399.902344 117.984375 C 398.734375 117.042969 397.5 116.195312 396.207031 115.441406 C 394.910156 114.6875 393.566406 114.035156 392.171875 113.480469 C 390.78125 112.929688 389.355469 112.484375 387.894531 112.148438 C 386.433594 111.8125 384.957031 111.585938 383.464844 111.472656 C 381.96875 111.359375 380.476562 111.355469 378.980469 111.464844 C 377.488281 111.578125 376.011719 111.800781 374.550781 112.132812 C 379.925781 104.636719 385.238281 96.414062 385.460938 87.191406 C 385.683594 77.96875 378.597656 68 369.410156 68.636719 C 364.003906 69 359.480469 72.753906 355.386719 76.320312 C 356.570312 68.636719 357.742188 60.648438 355.574219 53.167969 C 353.410156 45.691406 346.925781 38.90625 339.160156 38.90625 C 332.21875 39.019531 326.386719 44.53125 323.347656 50.792969 C 323.894531 49.667969 324.367188 48.515625 324.761719 47.328125 C 325.15625 46.144531 325.472656 44.9375 325.710938 43.710938 C 325.945312 42.484375 326.101562 41.246094 326.175781 39.996094 C 326.25 38.75 326.242188 37.503906 326.152344 36.257812 C 326.066406 35.007812 325.894531 33.773438 325.644531 32.550781 C 325.390625 31.324219 325.0625 30.121094 324.652344 28.941406 C 324.246094 27.761719 323.761719 26.613281 323.199219 25.496094 C 322.640625 24.378906 322.011719 23.304688 321.308594 22.269531 C 319.722656 19.78125 317.613281 17.867188 314.984375 16.53125 C 312.191406 15.429688 309.304688 15.039062 306.320312 15.359375 C 303.726562 15.523438 301.167969 15.902344 298.640625 16.496094 C 296.113281 17.089844 293.652344 17.886719 291.257812 18.890625 C 288.859375 19.898438 286.566406 21.09375 284.371094 22.480469 C 282.175781 23.871094 280.109375 25.433594 278.171875 27.164062 C 275.945312 12.160156 261.160156 0.132812 246.042969 1.019531 C 230.925781 1.90625 217.660156 15.597656 217.199219 30.761719 C 216.226562 30.117188 215.203125 29.550781 214.136719 29.074219 C 213.070312 28.59375 211.972656 28.203125 210.839844 27.902344 C 209.710938 27.605469 208.5625 27.398438 207.398438 27.289062 C 206.234375 27.175781 205.070312 27.160156 203.902344 27.242188 C 202.738281 27.320312 201.585938 27.496094 200.445312 27.761719 C 199.308594 28.03125 198.199219 28.390625 197.121094 28.839844 C 196.039062 29.292969 195.003906 29.828125 194.011719 30.449219 C 193.019531 31.066406 192.085938 31.765625 191.207031 32.539062 C 190.328125 33.3125 189.519531 34.152344 188.777344 35.058594 C 188.035156 35.964844 187.371094 36.925781 186.789062 37.941406 C 186.203125 38.957031 185.707031 40.011719 185.292969 41.109375 C 184.882812 42.207031 184.5625 43.328125 184.332031 44.476562 C 184.105469 45.625 183.972656 46.789062 183.933594 47.957031 C 183.890625 49.128906 183.949219 50.296875 184.101562 51.457031 C 184.25 52.621094 184.496094 53.761719 184.832031 54.882812 C 185.171875 56.007812 185.597656 57.09375 186.113281 58.144531 C 185.792969 57.589844 185.449219 57.054688 185.078125 56.535156 C 184.710938 56.011719 184.3125 55.511719 183.894531 55.03125 C 183.476562 54.550781 183.035156 54.089844 182.570312 53.652344 C 182.105469 53.214844 181.621094 52.796875 181.117188 52.40625 C 180.613281 52.015625 180.089844 51.652344 179.550781 51.3125 C 179.007812 50.972656 178.453125 50.660156 177.882812 50.375 C 177.3125 50.089844 176.730469 49.832031 176.132812 49.601562 C 175.539062 49.375 174.933594 49.175781 174.316406 49.007812 C 173.703125 48.839844 173.082031 48.699219 172.453125 48.589844 C 171.824219 48.484375 171.191406 48.40625 170.554688 48.359375 C 169.917969 48.3125 169.28125 48.296875 168.644531 48.3125 C 168.007812 48.328125 167.371094 48.375 166.738281 48.453125 C 166.105469 48.53125 165.476562 48.640625 164.855469 48.78125 C 164.234375 48.921875 163.617188 49.089844 163.011719 49.289062 C 162.40625 49.492188 161.8125 49.71875 161.230469 49.976562 C 160.644531 50.234375 160.074219 50.519531 159.519531 50.835938 C 158.964844 51.148438 158.425781 51.488281 157.902344 51.855469 C 157.378906 52.222656 156.875 52.613281 156.390625 53.027344 C 155.90625 53.441406 155.445312 53.882812 155.003906 54.34375 C 154.5625 54.804688 154.140625 55.285156 153.746094 55.789062 C 153.351562 56.289062 152.984375 56.808594 152.640625 57.347656 C 152.296875 57.886719 151.976562 58.4375 151.6875 59.007812 C 151.398438 59.578125 151.136719 60.160156 150.902344 60.753906 C 150.667969 61.347656 150.464844 61.953125 150.289062 62.570312 C 150.117188 63.183594 149.972656 63.804688 149.859375 64.433594 C 149.742188 65.0625 149.660156 65.695312 149.609375 66.332031 C 149.554688 66.96875 149.535156 67.609375 149.542969 68.246094 C 149.554688 68.886719 149.597656 69.523438 149.667969 70.15625 C 149.738281 70.792969 149.84375 71.421875 149.976562 72.046875 C 150.109375 72.671875 150.273438 73.289062 150.464844 73.898438 C 150.660156 74.507812 150.882812 75.105469 151.132812 75.695312 C 151.386719 76.28125 151.667969 76.855469 151.972656 77.414062 C 151.972656 77.414062 126.972656 179.96875 158.757812 193.535156 C 190.539062 207.097656 364.746094 204.660156 364.746094 204.660156 Z M 364.746094 204.660156 " fill-opacity="1" fill-rule="nonzero"/></g><path fill="#608b3c" d="M 69.605469 203.945312 C 53.289062 205.625 45.476562 207.351562 34.15625 202.359375 C 27.65625 199.492188 20.144531 191.1875 16.300781 185.199219 C 12.460938 179.210938 15.449219 169.195312 22.515625 168.5625 C 8.917969 167.214844 0 150.273438 5.375 137.707031 C 10.753906 125.140625 27.515625 119.515625 39.988281 124.90625 C 38.144531 123.113281 36.535156 121.128906 35.164062 118.953125 C 33.789062 116.777344 32.691406 114.46875 31.867188 112.03125 C 31.039062 109.589844 30.511719 107.089844 30.28125 104.523438 C 30.050781 101.960938 30.125 99.402344 30.503906 96.855469 C 30.792969 93.964844 31.847656 91.386719 33.664062 89.125 C 34.945312 87.898438 36.40625 86.945312 38.039062 86.261719 C 39.675781 85.582031 41.382812 85.222656 43.152344 85.179688 C 45.523438 85 47.882812 85.109375 50.226562 85.511719 C 52.570312 85.914062 54.828125 86.59375 57.007812 87.554688 C 59.183594 88.511719 61.210938 89.722656 63.09375 91.179688 C 64.972656 92.640625 66.648438 94.304688 68.121094 96.175781 C 62.523438 88.253906 66.097656 76.019531 74.445312 71.105469 C 82.792969 66.195312 94.101562 68.191406 101.328125 74.546875 C 99.175781 63.214844 98.667969 51.1875 102.8125 40.429688 C 106.957031 29.667969 116.507812 20.464844 127.96875 19.386719 C 139.433594 18.308594 151.6875 27.417969 151.6875 38.957031 C 151.835938 37.210938 152.214844 35.519531 152.824219 33.878906 C 153.429688 32.242188 154.246094 30.710938 155.273438 29.296875 C 156.296875 27.878906 157.492188 26.625 158.859375 25.539062 C 160.226562 24.449219 161.710938 23.5625 163.320312 22.878906 C 164.925781 22.199219 166.597656 21.742188 168.328125 21.519531 C 170.058594 21.292969 171.789062 21.304688 173.519531 21.550781 C 175.246094 21.800781 176.910156 22.273438 178.507812 22.976562 C 180.105469 23.679688 181.582031 24.585938 182.933594 25.691406 C 192.421875 33.488281 192.421875 47.875 191.425781 60.1875 C 192.460938 59.636719 193.539062 59.183594 194.65625 58.828125 C 195.773438 58.472656 196.914062 58.21875 198.078125 58.070312 C 199.238281 57.917969 200.40625 57.875 201.578125 57.9375 C 202.75 57.996094 203.90625 58.164062 205.046875 58.433594 C 206.1875 58.703125 207.292969 59.074219 208.367188 59.546875 C 209.441406 60.015625 210.464844 60.578125 211.4375 61.234375 C 212.414062 61.890625 213.320312 62.628906 214.160156 63.449219 C 214.996094 64.269531 215.757812 65.160156 216.4375 66.117188 C 217.117188 67.074219 217.707031 68.085938 218.203125 69.148438 C 218.699219 70.214844 219.097656 71.3125 219.398438 72.449219 C 219.695312 73.585938 219.890625 74.738281 219.984375 75.910156 C 220.074219 77.082031 220.0625 78.253906 219.941406 79.421875 C 219.820312 80.589844 219.597656 81.742188 219.273438 82.867188 C 218.945312 83.996094 218.519531 85.085938 217.996094 86.140625 C 217.476562 87.191406 216.863281 88.1875 216.160156 89.128906 C 215.457031 90.070312 214.675781 90.9375 213.816406 91.738281 C 221.46875 87.746094 229.785156 84.671875 238.40625 84.402344 C 247.023438 84.132812 256.003906 86.96875 261.855469 93.308594 C 262.964844 94.40625 263.859375 95.65625 264.539062 97.0625 C 265.21875 98.46875 265.648438 99.949219 265.824219 101.5 C 266.265625 109.167969 257.917969 113.972656 250.847656 116.902344 C 251.308594 116.859375 251.769531 116.832031 252.230469 116.820312 C 252.691406 116.804688 253.152344 116.804688 253.613281 116.820312 C 254.074219 116.832031 254.53125 116.863281 254.992188 116.902344 C 255.449219 116.945312 255.90625 117 256.363281 117.070312 C 256.820312 117.140625 257.273438 117.226562 257.722656 117.324219 C 258.171875 117.421875 258.621094 117.53125 259.066406 117.65625 C 259.507812 117.78125 259.949219 117.921875 260.382812 118.074219 C 260.820312 118.222656 261.25 118.390625 261.675781 118.566406 C 262.101562 118.746094 262.519531 118.9375 262.933594 119.140625 C 263.347656 119.34375 263.753906 119.558594 264.15625 119.789062 C 264.554688 120.015625 264.949219 120.257812 265.335938 120.507812 C 265.722656 120.761719 266.101562 121.023438 266.46875 121.300781 C 266.839844 121.574219 267.203125 121.863281 267.554688 122.160156 C 267.90625 122.457031 268.25 122.765625 268.585938 123.082031 C 268.917969 123.402344 269.242188 123.730469 269.558594 124.066406 C 269.871094 124.40625 270.175781 124.753906 270.46875 125.109375 C 270.761719 125.46875 271.042969 125.832031 271.3125 126.207031 C 271.585938 126.578125 271.84375 126.960938 272.089844 127.351562 C 272.339844 127.742188 272.574219 128.136719 272.796875 128.542969 C 273.023438 128.945312 273.234375 129.355469 273.433594 129.773438 C 273.628906 130.191406 273.816406 130.613281 273.988281 131.039062 C 274.164062 131.46875 274.324219 131.902344 274.46875 132.339844 C 274.617188 132.777344 274.75 133.21875 274.871094 133.664062 C 274.988281 134.113281 275.097656 134.5625 275.1875 135.015625 C 275.28125 135.464844 275.359375 135.921875 275.425781 136.378906 C 275.492188 136.835938 275.542969 137.296875 275.578125 137.753906 C 275.617188 138.214844 275.640625 138.675781 275.648438 139.140625 C 275.65625 139.601562 275.652344 140.0625 275.632812 140.523438 C 275.613281 140.984375 275.582031 141.445312 275.535156 141.90625 C 275.488281 142.367188 275.429688 142.824219 275.355469 143.28125 C 275.277344 143.734375 275.191406 144.1875 275.089844 144.640625 C 274.988281 145.089844 274.871094 145.535156 274.742188 145.980469 C 272.417969 154 265.792969 160.242188 258.34375 163.917969 C 250.898438 167.59375 242.53125 169.257812 234.402344 170.828125 C 241.929688 173.902344 249.488281 179.242188 251.117188 187.226562 C 252.746094 195.214844 244.507812 204.5625 237.125 201.1875 Z M 69.605469 203.945312 " fill-opacity="1" fill-rule="nonzero"/><path fill="#a0b63a" d="M 292.578125 204.625 C 301.308594 204.625 304.675781 206.480469 309.085938 202.425781 C 312.484375 199.253906 312.421875 193.675781 310.210938 189.621094 C 307.996094 185.5625 304.152344 182.710938 300.421875 180 C 301.09375 179.800781 301.742188 179.542969 302.367188 179.226562 C 302.992188 178.910156 303.582031 178.539062 304.140625 178.113281 C 304.699219 177.6875 305.210938 177.214844 305.683594 176.695312 C 306.15625 176.175781 306.574219 175.617188 306.945312 175.019531 C 307.316406 174.425781 307.628906 173.800781 307.886719 173.148438 C 308.144531 172.492188 308.339844 171.820312 308.472656 171.132812 C 308.609375 170.445312 308.679688 169.75 308.6875 169.046875 C 308.695312 168.34375 308.640625 167.648438 308.523438 166.953125 C 308.402344 166.261719 308.222656 165.585938 307.984375 164.929688 C 307.742188 164.269531 307.441406 163.636719 307.085938 163.03125 C 306.730469 162.425781 306.324219 161.859375 305.863281 161.328125 C 305.40625 160.800781 304.902344 160.3125 304.355469 159.875 C 303.808594 159.4375 303.226562 159.050781 302.609375 158.71875 C 301.992188 158.386719 301.347656 158.113281 300.683594 157.898438 C 300.015625 157.683594 299.332031 157.53125 298.640625 157.441406 C 297.945312 157.347656 297.246094 157.320312 296.546875 157.359375 C 298.359375 155.792969 299.863281 153.976562 301.066406 151.902344 C 302.265625 149.832031 303.09375 147.617188 303.550781 145.265625 C 304.230469 140.511719 302.320312 135.300781 298.175781 132.984375 C 294.03125 130.671875 287.882812 132.335938 286.269531 136.804688 C 287.722656 131.164062 286.269531 124.398438 281.335938 121.164062 C 276.402344 117.933594 268.527344 120.070312 267.105469 125.746094 C 268.449219 119.753906 268.675781 113.722656 267.785156 107.648438 C 267.199219 103.671875 265.902344 99.441406 262.613281 97.125 C 259.324219 94.8125 253.664062 95.921875 252.777344 99.851562 C 259.101562 91.277344 255.214844 77.667969 246.027344 72.375 C 236.839844 67.082031 224.394531 69.476562 216.613281 76.714844 C 208.835938 83.957031 205.421875 95.082031 205.910156 105.699219 C 205.585938 105.089844 205.199219 104.523438 204.75 104 C 204.300781 103.472656 203.800781 103.003906 203.25 102.589844 C 202.699219 102.171875 202.113281 101.820312 201.484375 101.535156 C 200.859375 101.25 200.207031 101.03125 199.535156 100.886719 C 198.859375 100.742188 198.179688 100.671875 197.488281 100.675781 C 196.800781 100.679688 196.117188 100.757812 195.445312 100.910156 C 194.773438 101.066406 194.125 101.289062 193.503906 101.582031 C 192.878906 101.875 192.292969 102.234375 191.75 102.65625 C 191.203125 103.078125 190.707031 103.554688 190.265625 104.085938 C 189.824219 104.613281 189.445312 105.1875 189.125 105.796875 C 188.808594 106.410156 188.558594 107.050781 188.382812 107.71875 C 188.203125 108.386719 188.097656 109.0625 188.066406 109.753906 C 188.035156 110.445312 188.078125 111.128906 188.195312 111.808594 C 188.316406 112.492188 188.503906 113.152344 188.765625 113.789062 C 189.027344 114.429688 189.355469 115.03125 189.746094 115.601562 C 190.140625 116.167969 190.589844 116.6875 191.09375 117.15625 C 190.980469 115.703125 190.699219 114.28125 190.25 112.894531 C 189.796875 111.507812 189.1875 110.191406 188.421875 108.953125 C 187.65625 107.710938 186.753906 106.578125 185.714844 105.554688 C 184.679688 104.53125 183.535156 103.644531 182.285156 102.894531 C 177.148438 100.136719 170 101.089844 166.472656 105.730469 C 162.949219 110.375 164.59375 118.3125 170.015625 120.421875 C 163.914062 116.1875 154.929688 122.226562 153.679688 129.5625 C 152.433594 136.898438 156.371094 144.078125 160.640625 150.164062 C 156.9375 145.203125 147.988281 148.246094 146.21875 154.171875 C 144.445312 160.097656 147.988281 166.484375 152.734375 170.445312 C 145.554688 167.117188 136.175781 171.601562 133.441406 179.035156 C 130.707031 186.46875 134.296875 195.421875 140.9375 199.636719 C 147.578125 203.851562 151.894531 203.753906 165.792969 203.851562 Z M 292.578125 204.625 " fill-opacity="1" fill-rule="nonzero"/><path fill="#c2d82e" d="M 115.398438 204.800781 C 111.144531 204.800781 109.074219 206.019531 102.339844 205.972656 C 98.085938 205.972656 93.609375 206.433594 89.417969 205.640625 C 85.230469 204.847656 81.277344 201.835938 80.546875 197.558594 C 79.820312 193.28125 84.011719 188.71875 88.105469 189.890625 C 84.1875 187.132812 80.199219 184.296875 77.542969 180.253906 C 74.886719 176.214844 74.082031 170.746094 76.769531 166.675781 C 79.457031 162.601562 86.257812 161.808594 88.945312 165.773438 C 86.695312 162.902344 85.28125 159.664062 84.707031 156.058594 C 84.585938 155.167969 84.589844 154.28125 84.726562 153.394531 C 84.867188 152.507812 85.125 151.660156 85.511719 150.851562 C 85.894531 150.042969 86.390625 149.304688 86.988281 148.640625 C 87.589844 147.976562 88.273438 147.410156 89.039062 146.945312 C 92.203125 145.363281 96.945312 147.121094 97.4375 150.65625 C 96.0625 146.472656 94.667969 142.113281 95.238281 137.738281 C 95.808594 133.367188 98.9375 129.007812 103.320312 128.566406 C 109.644531 127.929688 113.644531 134.902344 115.96875 140.671875 C 112.695312 137.503906 112.410156 132.449219 112.472656 127.898438 C 112.472656 122.257812 113.234375 115.824219 117.820312 112.527344 C 123.210938 108.648438 131.292969 111.769531 135.039062 117.28125 C 138.785156 122.796875 139.355469 129.785156 139.78125 136.425781 C 138.785156 129.136719 148.558594 124.082031 155.246094 127.058594 C 161.9375 130.039062 165.257812 137.738281 166.316406 145.011719 C 167.25 137.472656 176.484375 132.636719 183.535156 135.394531 C 190.585938 138.152344 194.242188 146.996094 192.089844 154.269531 C 195.253906 149.039062 198.699219 143.476562 204.34375 141.226562 C 209.988281 138.976562 218.070312 142.382812 217.976562 148.46875 C 217.691406 151.058594 216.75 153.375 215.144531 155.425781 C 211.726562 160.59375 208.035156 165.558594 204.074219 170.320312 C 210.101562 167.324219 217.261719 174.535156 216.488281 181.238281 C 215.714844 187.941406 209.957031 192.949219 204.027344 196.117188 C 196.535156 200.140625 188.578125 204.167969 180.074219 204.339844 Z M 115.398438 204.800781 " fill-opacity="1" fill-rule="nonzero"/><g clip-path="url(#be0993a6e0)"><path fill="#375622" d="M 364.746094 204.660156 C 375.167969 203.660156 385.949219 201.871094 394.503906 195.832031 C 403.058594 189.792969 408.738281 178.402344 404.957031 168.5625 C 402.332031 161.605469 395.867188 156.960938 389.554688 153.046875 C 395.371094 150.175781 400.347656 146.242188 404.484375 141.242188 C 405.628906 140.035156 406.554688 138.675781 407.257812 137.164062 C 407.960938 135.65625 408.40625 134.070312 408.59375 132.414062 C 408.523438 129.527344 407.644531 126.914062 405.953125 124.570312 C 405.117188 123.328125 404.1875 122.152344 403.175781 121.050781 C 402.160156 119.945312 401.070312 118.921875 399.902344 117.984375 C 398.734375 117.042969 397.5 116.195312 396.207031 115.441406 C 394.910156 114.6875 393.566406 114.035156 392.171875 113.480469 C 390.78125 112.929688 389.355469 112.484375 387.894531 112.148438 C 386.433594 111.8125 384.957031 111.585938 383.464844 111.472656 C 381.96875 111.359375 380.476562 111.355469 378.980469 111.464844 C 377.488281 111.578125 376.011719 111.800781 374.550781 112.132812 C 379.925781 104.636719 385.238281 96.414062 385.460938 87.191406 C 385.683594 77.96875 378.597656 68 369.410156 68.636719 C 364.003906 69 359.480469 72.753906 355.386719 76.320312 C 356.570312 68.636719 357.742188 60.648438 355.574219 53.167969 C 353.410156 45.691406 346.925781 38.90625 339.160156 38.90625 C 332.21875 39.019531 326.386719 44.53125 323.347656 50.792969 C 323.894531 49.667969 324.367188 48.515625 324.761719 47.328125 C 325.15625 46.144531 325.472656 44.9375 325.710938 43.710938 C 325.945312 42.484375 326.101562 41.246094 326.175781 39.996094 C 326.25 38.75 326.242188 37.503906 326.152344 36.257812 C 326.066406 35.007812 325.894531 33.773438 325.644531 32.550781 C 325.390625 31.324219 325.0625 30.121094 324.652344 28.941406 C 324.246094 27.761719 323.761719 26.613281 323.199219 25.496094 C 322.640625 24.378906 322.011719 23.304688 321.308594 22.269531 C 319.722656 19.78125 317.613281 17.867188 314.984375 16.53125 C 312.191406 15.429688 309.304688 15.039062 306.320312 15.359375 C 303.726562 15.523438 301.167969 15.902344 298.640625 16.496094 C 296.113281 17.089844 293.652344 17.886719 291.257812 18.890625 C 288.859375 19.898438 286.566406 21.09375 284.371094 22.480469 C 282.175781 23.871094 280.109375 25.433594 278.171875 27.164062 C 275.945312 12.160156 261.160156 0.132812 246.042969 1.019531 C 230.925781 1.90625 217.660156 15.597656 217.199219 30.761719 C 216.226562 30.117188 215.203125 29.550781 214.136719 29.074219 C 213.070312 28.59375 211.972656 28.203125 210.839844 27.902344 C 209.710938 27.605469 208.5625 27.398438 207.398438 27.289062 C 206.234375 27.175781 205.070312 27.160156 203.902344 27.242188 C 202.738281 27.320312 201.585938 27.496094 200.445312 27.761719 C 199.308594 28.03125 198.199219 28.390625 197.121094 28.839844 C 196.039062 29.292969 195.003906 29.828125 194.011719 30.449219 C 193.019531 31.066406 192.085938 31.765625 191.207031 32.539062 C 190.328125 33.3125 189.519531 34.152344 188.777344 35.058594 C 188.035156 35.964844 187.371094 36.925781 186.789062 37.941406 C 186.203125 38.957031 185.707031 40.011719 185.292969 41.109375 C 184.882812 42.207031 184.5625 43.328125 184.332031 44.476562 C 184.105469 45.625 183.972656 46.789062 183.933594 47.957031 C 183.890625 49.128906 183.949219 50.296875 184.101562 51.457031 C 184.25 52.621094 184.496094 53.761719 184.832031 54.882812 C 185.171875 56.007812 185.597656 57.09375 186.113281 58.144531 C 185.792969 57.589844 185.449219 57.054688 185.078125 56.535156 C 184.710938 56.011719 184.3125 55.511719 183.894531 55.03125 C 183.476562 54.550781 183.035156 54.089844 182.570312 53.652344 C 182.105469 53.214844 181.621094 52.796875 181.117188 52.40625 C 180.613281 52.015625 180.089844 51.652344 179.550781 51.3125 C 179.007812 50.972656 178.453125 50.660156 177.882812 50.375 C 177.3125 50.089844 176.730469 49.832031 176.132812 49.601562 C 175.539062 49.375 174.933594 49.175781 174.316406 49.007812 C 173.703125 48.839844 173.082031 48.699219 172.453125 48.589844 C 171.824219 48.484375 171.191406 48.40625 170.554688 48.359375 C 169.917969 48.3125 169.28125 48.296875 168.644531 48.3125 C 168.007812 48.328125 167.371094 48.375 166.738281 48.453125 C 166.105469 48.53125 165.476562 48.640625 164.855469 48.78125 C 164.234375 48.921875 163.617188 49.089844 163.011719 49.289062 C 162.40625 49.492188 161.8125 49.71875 161.230469 49.976562 C 160.644531 50.234375 160.074219 50.519531 159.519531 50.835938 C 158.964844 51.148438 158.425781 51.488281 157.902344 51.855469 C 157.378906 52.222656 156.875 52.613281 156.390625 53.027344 C 155.90625 53.441406 155.445312 53.882812 155.003906 54.34375 C 154.5625 54.804688 154.140625 55.285156 153.746094 55.789062 C 153.351562 56.289062 152.984375 56.808594 152.640625 57.347656 C 152.296875 57.886719 151.976562 58.4375 151.6875 59.007812 C 151.398438 59.578125 151.136719 60.160156 150.902344 60.753906 C 150.667969 61.347656 150.464844 61.953125 150.289062 62.570312 C 150.117188 63.183594 149.972656 63.804688 149.859375 64.433594 C 149.742188 65.0625 149.660156 65.695312 149.609375 66.332031 C 149.554688 66.96875 149.535156 67.609375 149.542969 68.246094 C 149.554688 68.886719 149.597656 69.523438 149.667969 70.15625 C 149.738281 70.792969 149.84375 71.421875 149.976562 72.046875 C 150.109375 72.671875 150.273438 73.289062 150.464844 73.898438 C 150.660156 74.507812 150.882812 75.105469 151.132812 75.695312 C 151.386719 76.28125 151.667969 76.855469 151.972656 77.414062 C 151.972656 77.414062 126.972656 179.96875 158.757812 193.535156 C 190.539062 207.097656 364.746094 204.660156 364.746094 204.660156 Z M 364.746094 204.660156 " fill-opacity="1" fill-rule="nonzero"/></g><path fill="#608b3c" d="M 69.605469 203.945312 C 53.289062 205.625 45.476562 207.351562 34.15625 202.359375 C 27.65625 199.492188 20.144531 191.1875 16.300781 185.199219 C 12.460938 179.210938 15.449219 169.195312 22.515625 168.5625 C 8.917969 167.214844 0 150.273438 5.375 137.707031 C 10.753906 125.140625 27.515625 119.515625 39.988281 124.90625 C 38.144531 123.113281 36.535156 121.128906 35.164062 118.953125 C 33.789062 116.777344 32.691406 114.46875 31.867188 112.03125 C 31.039062 109.589844 30.511719 107.089844 30.28125 104.523438 C 30.050781 101.960938 30.125 99.402344 30.503906 96.855469 C 30.792969 93.964844 31.847656 91.386719 33.664062 89.125 C 34.945312 87.898438 36.40625 86.945312 38.039062 86.261719 C 39.675781 85.582031 41.382812 85.222656 43.152344 85.179688 C 45.523438 85 47.882812 85.109375 50.226562 85.511719 C 52.570312 85.914062 54.828125 86.59375 57.007812 87.554688 C 59.183594 88.511719 61.210938 89.722656 63.09375 91.179688 C 64.972656 92.640625 66.648438 94.304688 68.121094 96.175781 C 62.523438 88.253906 66.097656 76.019531 74.445312 71.105469 C 82.792969 66.195312 94.101562 68.191406 101.328125 74.546875 C 99.175781 63.214844 98.667969 51.1875 102.8125 40.429688 C 106.957031 29.667969 116.507812 20.464844 127.96875 19.386719 C 139.433594 18.308594 151.6875 27.417969 151.6875 38.957031 C 151.835938 37.210938 152.214844 35.519531 152.824219 33.878906 C 153.429688 32.242188 154.246094 30.710938 155.273438 29.296875 C 156.296875 27.878906 157.492188 26.625 158.859375 25.539062 C 160.226562 24.449219 161.710938 23.5625 163.320312 22.878906 C 164.925781 22.199219 166.597656 21.742188 168.328125 21.519531 C 170.058594 21.292969 171.789062 21.304688 173.519531 21.550781 C 175.246094 21.800781 176.910156 22.273438 178.507812 22.976562 C 180.105469 23.679688 181.582031 24.585938 182.933594 25.691406 C 192.421875 33.488281 192.421875 47.875 191.425781 60.1875 C 192.460938 59.636719 193.539062 59.183594 194.65625 58.828125 C 195.773438 58.472656 196.914062 58.21875 198.078125 58.070312 C 199.238281 57.917969 200.40625 57.875 201.578125 57.9375 C 202.75 57.996094 203.90625 58.164062 205.046875 58.433594 C 206.1875 58.703125 207.292969 59.074219 208.367188 59.546875 C 209.441406 60.015625 210.464844 60.578125 211.4375 61.234375 C 212.414062 61.890625 213.320312 62.628906 214.160156 63.449219 C 214.996094 64.269531 215.757812 65.160156 216.4375 66.117188 C 217.117188 67.074219 217.707031 68.085938 218.203125 69.148438 C 218.699219 70.214844 219.097656 71.3125 219.398438 72.449219 C 219.695312 73.585938 219.890625 74.738281 219.984375 75.910156 C 220.074219 77.082031 220.0625 78.253906 219.941406 79.421875 C 219.820312 80.589844 219.597656 81.742188 219.273438 82.867188 C 218.945312 83.996094 218.519531 85.085938 217.996094 86.140625 C 217.476562 87.191406 216.863281 88.1875 216.160156 89.128906 C 215.457031 90.070312 214.675781 90.9375 213.816406 91.738281 C 221.46875 87.746094 229.785156 84.671875 238.40625 84.402344 C 247.023438 84.132812 256.003906 86.96875 261.855469 93.308594 C 262.964844 94.40625 263.859375 95.65625 264.539062 97.0625 C 265.21875 98.46875 265.648438 99.949219 265.824219 101.5 C 266.265625 109.167969 257.917969 113.972656 250.847656 116.902344 C 251.308594 116.859375 251.769531 116.832031 252.230469 116.820312 C 252.691406 116.804688 253.152344 116.804688 253.613281 116.820312 C 254.074219 116.832031 254.53125 116.863281 254.992188 116.902344 C 255.449219 116.945312 255.90625 117 256.363281 117.070312 C 256.820312 117.140625 257.273438 117.226562 257.722656 117.324219 C 258.171875 117.421875 258.621094 117.53125 259.066406 117.65625 C 259.507812 117.78125 259.949219 117.921875 260.382812 118.074219 C 260.820312 118.222656 261.25 118.390625 261.675781 118.566406 C 262.101562 118.746094 262.519531 118.9375 262.933594 119.140625 C 263.347656 119.34375 263.753906 119.558594 264.15625 119.789062 C 264.554688 120.015625 264.949219 120.257812 265.335938 120.507812 C 265.722656 120.761719 266.101562 121.023438 266.46875 121.300781 C 266.839844 121.574219 267.203125 121.863281 267.554688 122.160156 C 267.90625 122.457031 268.25 122.765625 268.585938 123.082031 C 268.917969 123.402344 269.242188 123.730469 269.558594 124.066406 C 269.871094 124.40625 270.175781 124.753906 270.46875 125.109375 C 270.761719 125.46875 271.042969 125.832031 271.3125 126.207031 C 271.585938 126.578125 271.84375 126.960938 272.089844 127.351562 C 272.339844 127.742188 272.574219 128.136719 272.796875 128.542969 C 273.023438 128.945312 273.234375 129.355469 273.433594 129.773438 C 273.628906 130.191406 273.816406 130.613281 273.988281 131.039062 C 274.164062 131.46875 274.324219 131.902344 274.46875 132.339844 C 274.617188 132.777344 274.75 133.21875 274.871094 133.664062 C 274.988281 134.113281 275.097656 134.5625 275.1875 135.015625 C 275.28125 135.464844 275.359375 135.921875 275.425781 136.378906 C 275.492188 136.835938 275.542969 137.296875 275.578125 137.753906 C 275.617188 138.214844 275.640625 138.675781 275.648438 139.140625 C 275.65625 139.601562 275.652344 140.0625 275.632812 140.523438 C 275.613281 140.984375 275.582031 141.445312 275.535156 141.90625 C 275.488281 142.367188 275.429688 142.824219 275.355469 143.28125 C 275.277344 143.734375 275.191406 144.1875 275.089844 144.640625 C 274.988281 145.089844 274.871094 145.535156 274.742188 145.980469 C 272.417969 154 265.792969 160.242188 258.34375 163.917969 C 250.898438 167.59375 242.53125 169.257812 234.402344 170.828125 C 241.929688 173.902344 249.488281 179.242188 251.117188 187.226562 C 252.746094 195.214844 244.507812 204.5625 237.125 201.1875 Z M 69.605469 203.945312 " fill-opacity="1" fill-rule="nonzero"/><path fill="#a0b63a" d="M 292.578125 204.625 C 301.308594 204.625 304.675781 206.480469 309.085938 202.425781 C 312.484375 199.253906 312.421875 193.675781 310.210938 189.621094 C 307.996094 185.5625 304.152344 182.710938 300.421875 180 C 301.09375 179.800781 301.742188 179.542969 302.367188 179.226562 C 302.992188 178.910156 303.582031 178.539062 304.140625 178.113281 C 304.699219 177.6875 305.210938 177.214844 305.683594 176.695312 C 306.15625 176.175781 306.574219 175.617188 306.945312 175.019531 C 307.316406 174.425781 307.628906 173.800781 307.886719 173.148438 C 308.144531 172.492188 308.339844 171.820312 308.472656 171.132812 C 308.609375 170.445312 308.679688 169.75 308.6875 169.046875 C 308.695312 168.34375 308.640625 167.648438 308.523438 166.953125 C 308.402344 166.261719 308.222656 165.585938 307.984375 164.929688 C 307.742188 164.269531 307.441406 163.636719 307.085938 163.03125 C 306.730469 162.425781 306.324219 161.859375 305.863281 161.328125 C 305.40625 160.800781 304.902344 160.3125 304.355469 159.875 C 303.808594 159.4375 303.226562 159.050781 302.609375 158.71875 C 301.992188 158.386719 301.347656 158.113281 300.683594 157.898438 C 300.015625 157.683594 299.332031 157.53125 298.640625 157.441406 C 297.945312 157.347656 297.246094 157.320312 296.546875 157.359375 C 298.359375 155.792969 299.863281 153.976562 301.066406 151.902344 C 302.265625 149.832031 303.09375 147.617188 303.550781 145.265625 C 304.230469 140.511719 302.320312 135.300781 298.175781 132.984375 C 294.03125 130.671875 287.882812 132.335938 286.269531 136.804688 C 287.722656 131.164062 286.269531 124.398438 281.335938 121.164062 C 276.402344 117.933594 268.527344 120.070312 267.105469 125.746094 C 268.449219 119.753906 268.675781 113.722656 267.785156 107.648438 C 267.199219 103.671875 265.902344 99.441406 262.613281 97.125 C 259.324219 94.8125 253.664062 95.921875 252.777344 99.851562 C 259.101562 91.277344 255.214844 77.667969 246.027344 72.375 C 236.839844 67.082031 224.394531 69.476562 216.613281 76.714844 C 208.835938 83.957031 205.421875 95.082031 205.910156 105.699219 C 205.585938 105.089844 205.199219 104.523438 204.75 104 C 204.300781 103.472656 203.800781 103.003906 203.25 102.589844 C 202.699219 102.171875 202.113281 101.820312 201.484375 101.535156 C 200.859375 101.25 200.207031 101.03125 199.535156 100.886719 C 198.859375 100.742188 198.179688 100.671875 197.488281 100.675781 C 196.800781 100.679688 196.117188 100.757812 195.445312 100.910156 C 194.773438 101.066406 194.125 101.289062 193.503906 101.582031 C 192.878906 101.875 192.292969 102.234375 191.75 102.65625 C 191.203125 103.078125 190.707031 103.554688 190.265625 104.085938 C 189.824219 104.613281 189.445312 105.1875 189.125 105.796875 C 188.808594 106.410156 188.558594 107.050781 188.382812 107.71875 C 188.203125 108.386719 188.097656 109.0625 188.066406 109.753906 C 188.035156 110.445312 188.078125 111.128906 188.195312 111.808594 C 188.316406 112.492188 188.503906 113.152344 188.765625 113.789062 C 189.027344 114.429688 189.355469 115.03125 189.746094 115.601562 C 190.140625 116.167969 190.589844 116.6875 191.09375 117.15625 C 190.980469 115.703125 190.699219 114.28125 190.25 112.894531 C 189.796875 111.507812 189.1875 110.191406 188.421875 108.953125 C 187.65625 107.710938 186.753906 106.578125 185.714844 105.554688 C 184.679688 104.53125 183.535156 103.644531 182.285156 102.894531 C 177.148438 100.136719 170 101.089844 166.472656 105.730469 C 162.949219 110.375 164.59375 118.3125 170.015625 120.421875 C 163.914062 116.1875 154.929688 122.226562 153.679688 129.5625 C 152.433594 136.898438 156.371094 144.078125 160.640625 150.164062 C 156.9375 145.203125 147.988281 148.246094 146.21875 154.171875 C 144.445312 160.097656 147.988281 166.484375 152.734375 170.445312 C 145.554688 167.117188 136.175781 171.601562 133.441406 179.035156 C 130.707031 186.46875 134.296875 195.421875 140.9375 199.636719 C 147.578125 203.851562 151.894531 203.753906 165.792969 203.851562 Z M 292.578125 204.625 " fill-opacity="1" fill-rule="nonzero"/><path fill="#c2d82e" d="M 115.398438 204.800781 C 111.144531 204.800781 109.074219 206.019531 102.339844 205.972656 C 98.085938 205.972656 93.609375 206.433594 89.417969 205.640625 C 85.230469 204.847656 81.277344 201.835938 80.546875 197.558594 C 79.820312 193.28125 84.011719 188.71875 88.105469 189.890625 C 84.1875 187.132812 80.199219 184.296875 77.542969 180.253906 C 74.886719 176.214844 74.082031 170.746094 76.769531 166.675781 C 79.457031 162.601562 86.257812 161.808594 88.945312 165.773438 C 86.695312 162.902344 85.28125 159.664062 84.707031 156.058594 C 84.585938 155.167969 84.589844 154.28125 84.726562 153.394531 C 84.867188 152.507812 85.125 151.660156 85.511719 150.851562 C 85.894531 150.042969 86.390625 149.304688 86.988281 148.640625 C 87.589844 147.976562 88.273438 147.410156 89.039062 146.945312 C 92.203125 145.363281 96.945312 147.121094 97.4375 150.65625 C 96.0625 146.472656 94.667969 142.113281 95.238281 137.738281 C 95.808594 133.367188 98.9375 129.007812 103.320312 128.566406 C 109.644531 127.929688 113.644531 134.902344 115.96875 140.671875 C 112.695312 137.503906 112.410156 132.449219 112.472656 127.898438 C 112.472656 122.257812 113.234375 115.824219 117.820312 112.527344 C 123.210938 108.648438 131.292969 111.769531 135.039062 117.28125 C 138.785156 122.796875 139.355469 129.785156 139.78125 136.425781 C 138.785156 129.136719 148.558594 124.082031 155.246094 127.058594 C 161.9375 130.039062 165.257812 137.738281 166.316406 145.011719 C 167.25 137.472656 176.484375 132.636719 183.535156 135.394531 C 190.585938 138.152344 194.242188 146.996094 192.089844 154.269531 C 195.253906 149.039062 198.699219 143.476562 204.34375 141.226562 C 209.988281 138.976562 218.070312 142.382812 217.976562 148.46875 C 217.691406 151.058594 216.75 153.375 215.144531 155.425781 C 211.726562 160.59375 208.035156 165.558594 204.074219 170.320312 C 210.101562 167.324219 217.261719 174.535156 216.488281 181.238281 C 215.714844 187.941406 209.957031 192.949219 204.027344 196.117188 C 196.535156 200.140625 188.578125 204.167969 180.074219 204.339844 Z M 115.398438 204.800781 " fill-opacity="1" fill-rule="nonzero"/></svg>