<svg xmlns="http://www.w3.org/2000/svg" xmlns:xlink="http://www.w3.org/1999/xlink" width="1366" zoomAndPan="magnify" viewBox="0 0 1024.5 107.249998" height="143" preserveAspectRatio="xMidYMid meet" version="1.0"><defs><clipPath id="add4d27a2c"><path d="M 5 15 L 1019 15 L 1019 106.503906 L 5 106.503906 Z M 5 15 " clip-rule="nonzero"/></clipPath><clipPath id="f835f454a9"><path d="M 5 15 L 1019 15 L 1019 106.503906 L 5 106.503906 Z M 5 15 " clip-rule="nonzero"/></clipPath></defs><g clip-path="url(#add4d27a2c)"><path fill="#884f21" d="M 1018.917969 27.351562 C 1013.507812 27.351562 964.714844 31.15625 932.203125 31.15625 C 899.632812 31.15625 780.40625 65.113281 709.917969 72.71875 C 639.429688 80.269531 468.671875 61.363281 371.078125 34.960938 C 273.488281 8.503906 151.472656 12.25 5.085938 27.351562 L 5.085938 106.503906 L 1018.917969 106.503906 Z M 1018.917969 27.351562 " fill-opacity="1" fill-rule="nonzero"/></g><path fill="#ab6828" d="M 709.859375 64.160156 C 639.429688 71.769531 468.671875 52.859375 371.023438 26.402344 C 273.488281 0 151.472656 12.195312 5.085938 27.242188 L 5.085938 50.847656 C 114.890625 26.066406 327.695312 33.785156 356.582031 41.617188 C 454.171875 68.074219 639.371094 80.214844 709.859375 72.664062 C 780.351562 65.113281 888.535156 43.183594 920.992188 44.75 C 953.503906 46.316406 954.84375 52.191406 1018.863281 50.625 L 1018.863281 27.1875 C 996.222656 29.3125 954.5625 27.578125 927.015625 27.578125 C 877.664062 27.578125 765.015625 58.285156 709.859375 64.160156 Z M 709.859375 64.160156 " fill-opacity="1" fill-rule="nonzero"/><g clip-path="url(#f835f454a9)"><path fill="#884f21" d="M 1018.917969 27.351562 C 1013.507812 27.351562 964.714844 31.15625 932.203125 31.15625 C 899.632812 31.15625 780.40625 65.113281 709.917969 72.71875 C 639.429688 80.269531 468.671875 61.363281 371.078125 34.960938 C 273.488281 8.503906 151.472656 12.25 5.085938 27.351562 L 5.085938 106.503906 L 1018.917969 106.503906 Z M 1018.917969 27.351562 " fill-opacity="1" fill-rule="nonzero"/></g><path fill="#ab6828" d="M 709.859375 64.160156 C 639.429688 71.769531 468.671875 52.859375 371.023438 26.402344 C 273.488281 0 151.472656 12.195312 5.085938 27.242188 L 5.085938 50.847656 C 114.890625 26.066406 327.695312 33.785156 356.582031 41.617188 C 454.171875 68.074219 639.371094 80.214844 709.859375 72.664062 C 780.351562 65.113281 888.535156 43.183594 920.992188 44.75 C 953.503906 46.316406 954.84375 52.191406 1018.863281 50.625 L 1018.863281 27.1875 C 996.222656 29.3125 954.5625 27.578125 927.015625 27.578125 C 877.664062 27.578125 765.015625 58.285156 709.859375 64.160156 Z M 709.859375 64.160156 " fill-opacity="1" fill-rule="nonzero"/></svg>